<svg xmlns="http://www.w3.org/2000/svg" width="6" height="11" fill="none" xmlns:v="https://vecta.io/nano"><path d="M2.969 9.849c-.916.398-2.331.056-2.084-.774L2.22 4.59c.467-1.569-.817-1.054-1.393-.827.352-.476.839-.859 1.411-1.108.916-.398 2.331-.056 2.084.774L2.987 7.914c-.467 1.569.817 1.054 1.393.827-.352.476-.839.859-1.411 1.108zm1.237-8.107c-.191 0-.378-.051-.538-.147s-.283-.232-.356-.391a.79.79 0 0 1-.055-.503c.037-.169.129-.324.265-.446s.308-.205.495-.238a1.07 1.07 0 0 1 .559.05c.177.066.328.178.434.321a.81.81 0 0 1 .163.484c0 .114-.025.228-.074.333a.87.87 0 0 1-.21.282.98.98 0 0 1-.314.189 1.06 1.06 0 0 1-.37.066z" fill="#000"/></svg>